<svg xmlns="http://www.w3.org/2000/svg" viewBox="0 0 850.33 795.11">
  <path
    d="M133.35,591.62,81.53,377.15q-15-62.7-19.74-90.34-6.47-37.59,9.62-62t48.23-30q39-6.69,56.73,18t26.5,75.42a607.12,607.12,0,0,1,7.27,61.24l18.93,226.65q3.69,40.41-3.06,63.49t-30.77,27.21Q170.79,671,157.73,652T133.35,591.62ZM234.9,881q-27.65,4.75-51.32-9.59T154.36,824.9q-4.83-28.06,11.48-51.17t44.85-28q28.55-4.9,52.08,11.33t28.38,44.31q5.44,31.71-11.81,53.33A70.42,70.42,0,0,1,234.9,881Z"
    transform="translate(-59.94 -87.07)" style="fill:#ef4444" />
  <path
    d="M442.25,538.48,390.44,324q-15-62.7-19.74-90.34-6.46-37.59,9.61-62t48.24-30q38.94-6.69,56.72,18t26.5,75.42A601.41,601.41,0,0,1,519,296.29L538,522.94q3.67,40.41-3.07,63.49t-30.76,27.21q-24.47,4.2-37.52-14.77T442.25,538.48ZM543.8,827.86q-27.63,4.75-51.32-9.59t-29.22-46.51q-4.83-28.07,11.49-51.17t44.85-28q28.53-4.9,52.08,11.33t28.37,44.31q5.46,31.71-11.81,53.33A70.4,70.4,0,0,1,543.8,827.86Z"
    transform="translate(-59.94 -87.07)" style="fill:#3b82f6" />
  <path
    d="M751.16,485.34,699.34,270.87q-15-62.7-19.74-90.34-6.47-37.59,9.62-62t48.23-30q39-6.69,56.73,18t26.5,75.42A607.12,607.12,0,0,1,828,243.15L846.88,469.8q3.69,40.41-3.07,63.49T813.05,560.5q-24.45,4.2-37.51-14.77T751.16,485.34ZM852.7,774.72q-27.63,4.75-51.31-9.59t-29.22-46.51q-4.83-28.07,11.48-51.17t44.85-28q28.53-4.91,52.08,11.33T909,695.09q5.44,31.71-11.81,53.33A70.44,70.44,0,0,1,852.7,774.72Z"
    transform="translate(-59.94 -87.07)" style="fill:#22c55e" />
</svg>